PathFileType  4	(X/Y/Z) C:\Users\antoi\Documents\MyRepositories\mobilecap\ResultsAnalysis
DataRate	CameraRate	NumFrames	NumMarkers	Units	OrigDataRate	OrigDataStartFrame	OrigNumFrames
100.0	100.0	5	51	mm	100.0	203	231
Frame#	Time	r_knee			r_shank_antsup			r_ankle			r_calc			r_5meta			r_toe			L_knee			L_shank_antsup			L_ankle			L_calc			L_5meta			L_toe			r_sh2			r_sh3			r_sh4			L_sh2			L_sh3			r_thigh1			r_thigh2			r_thigh3			r_thigh4			r_thigh5			L_thigh1			L_thigh2			L_thigh3			L_thigh4			r.ASIS			r.PSIS			L.ASIS			L.PSIS			C7			R_Shoulder			L_Shoulder			R_Sternum			L_Sternum			R_humerus			R_elbow_med			R_elbow_lat			R_forearm			R_wrist_radius			R_wrist_ulna			L_humerus			L_elbow_med			L_elbow_lat			L_forearm			L_wrist_radius			L_wrist_ulna			R_HJC			L_HJC			R_HJC_reg			L_HJC_reg			
		X1	Y1	Z1	X2	Y2	Z2	X3	Y3	Z3	X4	Y4	Z4	X5	Y5	Z5	X6	Y6	Z6	X7	Y7	Z7	X8	Y8	Z8	X9	Y9	Z9	X10	Y10	Z10	X11	Y11	Z11	X12	Y12	Z12	X13	Y13	Z13	X14	Y14	Z14	X15	Y15	Z15	X16	Y16	Z16	X17	Y17	Z17	X18	Y18	Z18	X19	Y19	Z19	X20	Y20	Z20	X21	Y21	Z21	X22	Y22	Z22	X23	Y23	Z23	X24	Y24	Z24	X25	Y25	Z25	X26	Y26	Z26	X27	Y27	Z27	X28	Y28	Z28	X29	Y29	Z29	X30	Y30	Z30	X31	Y31	Z31	X32	Y32	Z32	X33	Y33	Z33	X34	Y34	Z34	X35	Y35	Z35	X36	Y36	Z36	X37	Y37	Z37	X38	Y38	Z38	X39	Y39	Z39	X40	Y40	Z40	X41	Y41	Z41	X42	Y42	Z42	X43	Y43	Z43	X44	Y44	Z44	X45	Y45	Z45	X46	Y46	Z46	X47	Y47	Z47	X48	Y48	Z48	X49	Y49	Z49	X50	Y50	Z50	X51	Y51	Z51	

203	2.02000000	-281.24036	829.82850	-461.67907	-237.92095	737.05141	-457.22906	-284.24835	394.41363	-450.27376	-368.06177	396.15151	-505.44035	-222.36309	258.26036	-423.67409	-148.58364	266.62031	-474.76969	-338.81337	821.38097	-837.62194	-344.19070	732.04975	-857.13397	-360.23763	395.43944	-800.94011	-431.15521	395.10980	-723.96964	-305.86260	260.10045	-828.40374	-226.05358	262.42474	-786.47219	-251.54271	628.92698	-423.43952	-304.03251	754.97474	-424.50973	-331.38914	642.79557	-410.15548	-428.49040	738.22472	-827.29598	-421.14029	616.38569	-823.54734	-257.80122	1157.77084	-466.64806	-236.89266	1050.47421	-467.06077	-283.46648	1015.89937	-435.07887	-367.00447	1131.17005	-462.79803	-336.45095	1020.37425	-453.69410	-275.57961	1114.98909	-852.62078	-258.90448	975.82671	-846.37141	-384.64015	1101.68647	-862.59612	-373.56089	964.99936	-854.17709	-267.75071	1366.13695	-535.15053	-447.36770	1374.50084	-592.47734	-278.02030	1365.04542	-779.65076	-454.82582	1377.63465	-703.11771	-361.18618	1925.08932	-622.23110	-324.13250	1889.01883	-482.79174	-359.60638	1903.67077	-755.94819	-245.17158	1828.13023	-598.15785	-248.41670	1828.76975	-666.57451	-363.16067	1828.01121	-350.23827	-483.91332	1672.42613	-242.67772	-503.47360	1759.77159	-225.25047	-453.30434	1749.99095	-56.78744	-403.76331	1746.70938	21.76763	-445.73174	1729.72124	23.98345	-419.36380	1902.24158	-862.24694	-429.97215	1795.28123	-1085.36583	-477.90363	1869.91509	-1067.94375	-426.91545	1928.77995	-1067.85856	-286.68658	2025.03890	-1058.66905	-282.72130	2021.42862	-1098.40815	-342.99895	1247.74728	-549.31371	-357.59679	1254.24361	-755.65673	-322.84346	1280.80422	-568.14258	-333.70186	1285.36699	-729.22657	
204	2.03000000	-282.04005	809.33807	-462.19816	-238.82600	716.53860	-457.33689	-285.39336	373.96532	-449.88473	-369.07717	375.64311	-505.20297	-223.69739	237.66246	-423.13370	-149.61838	246.03438	-473.85126	-338.57252	801.02244	-838.36542	-343.79367	711.63021	-857.80152	-362.53269	375.16336	-801.85547	-434.90332	375.76392	-726.49661	-308.52028	238.97674	-827.13787	-229.45714	241.25707	-783.55687	-252.70655	608.58193	-423.29337	-304.76563	734.76370	-424.91559	-332.41457	622.08237	-410.96311	-428.54154	718.46699	-829.48665	-422.06546	596.59922	-825.39970	-258.94905	1137.28327	-467.59377	-237.93242	1030.03314	-467.67514	-284.59999	995.23670	-435.91456	-368.05371	1110.59954	-463.90665	-337.49165	999.62271	-454.71084	-275.34548	1094.83120	-853.00780	-258.75833	955.56379	-846.32547	-384.31759	1081.41820	-863.88419	-373.21213	944.83345	-855.44687	-269.21864	1345.38051	-535.62425	-448.76666	1353.71517	-593.36570	-279.15546	1344.77964	-780.13641	-456.12250	1357.14509	-704.14769	-361.62581	1904.32840	-622.50843	-324.74617	1868.91437	-482.90969	-360.18379	1883.75437	-755.23809	-245.73250	1807.32877	-597.98309	-248.91902	1808.09851	-666.64446	-367.04722	1806.78584	-351.22337	-495.95950	1652.00045	-249.89467	-512.35085	1739.91560	-230.68161	-460.78206	1724.87116	-62.83682	-410.16670	1717.95497	14.46482	-452.71292	1702.62157	16.84759	-422.36689	1881.63643	-859.97480	-439.17826	1773.73153	-1082.64679	-487.00991	1848.07494	-1063.94929	-435.90685	1907.39197	-1062.60189	-295.51791	2001.91984	-1049.25078	-292.39328	2000.64393	-1088.03474	-344.45704	1226.96692	-550.25480	-358.64374	1233.88929	-756.61263	-324.15102	1260.00011	-568.90509	-334.84664	1264.98716	-729.98496	
205	2.04000000	-282.64530	788.02595	-462.42301	-239.67375	695.18926	-457.23939	-286.41197	352.69582	-449.30453	-370.04274	354.65660	-504.55806	-225.24328	215.77818	-423.04739	-150.95394	224.11642	-473.25592	-338.26006	779.88858	-839.41815	-343.44817	690.59465	-858.89076	-364.99567	354.15987	-802.92206	-438.62502	355.82101	-729.07205	-311.52285	217.10378	-826.10234	-233.16243	219.18850	-780.81362	-253.61118	587.47343	-423.21667	-305.44644	713.65205	-424.86963	-334.08878	601.02781	-411.46889	-428.65266	698.03371	-831.67566	-422.95630	576.10702	-827.40721	-260.14317	1115.85163	-468.57601	-239.10737	1008.57785	-468.36996	-285.69120	973.85118	-436.71287	-369.16265	1089.16806	-465.20816	-338.66561	978.12541	-455.52654	-275.21311	1073.93667	-853.26742	-258.50905	934.67054	-846.40738	-384.00691	1060.48999	-865.28334	-372.85202	923.87411	-856.65645	-270.66043	1323.68469	-536.06484	-450.17605	1332.14080	-594.10913	-280.37355	1323.62428	-780.37272	-457.53393	1335.82724	-705.02938	-361.97810	1882.60924	-622.48112	-325.04317	1847.58739	-482.80984	-360.51300	1862.75119	-754.83337	-246.20265	1785.37113	-597.59748	-249.19450	1786.41398	-666.59219	-371.23358	1784.17925	-352.60894	-507.99460	1629.88913	-258.64154	-521.66561	1717.87011	-237.10073	-468.49596	1696.81045	-70.59427	-416.64398	1686.17990	5.55088	-459.69585	1672.44737	8.59802	-425.19939	1859.73282	-858.17957	-448.88992	1749.35202	-1078.97909	-496.66006	1823.60254	-1059.46651	-445.33485	1883.13907	-1057.13005	-304.35657	1975.62380	-1040.26201	-303.33059	1976.05530	-1077.91902	-345.99999	1205.30652	-551.06767	-359.83459	1212.67931	-757.43404	-325.49434	1238.43386	-569.50869	-336.16945	1243.78202	-730.43672	
206	2.05000000	-282.97868	765.83034	-462.31681	-240.39413	673.06206	-456.84678	-287.20032	330.59099	-448.43087	-370.92344	333.45175	-503.40676	-227.03052	192.83354	-423.08383	-152.82188	200.62946	-473.31646	-337.78270	758.11302	-840.87017	-343.24915	668.79083	-860.18588	-367.44465	332.32850	-804.05098	-442.11457	335.42420	-731.45907	-314.95276	194.30278	-825.05113	-237.20072	196.12130	-778.59263	-254.31306	565.34775	-423.04703	-306.25945	691.45606	-424.56274	-336.09302	579.72778	-411.15383	-428.75545	676.95127	-833.80125	-423.96182	554.88256	-829.19196	-261.36595	1093.57197	-469.54086	-240.18371	986.20167	-469.04200	-286.79653	951.66959	-437.35760	-370.39290	1066.76701	-466.62233	-339.68010	955.97043	-456.26037	-275.16005	1052.39319	-853.51249	-258.09738	913.17332	-846.75357	-383.77209	1038.88329	-866.66745	-372.44809	902.07414	-857.79596	-272.25437	1301.08194	-536.35892	-451.66835	1309.72108	-594.72047	-281.65106	1301.64054	-780.51192	-459.06875	1313.60198	-705.69205	-362.05680	1859.97341	-622.42680	-325.01232	1825.02757	-482.54669	-360.25707	1840.38039	-754.93559	-246.53562	1762.56162	-597.15338	-249.33937	1763.62631	-666.20719	-375.68147	1759.88718	-354.31838	-519.78052	1605.82877	-269.20287	-531.15923	1693.46648	-244.67239	-476.31579	1665.57808	-80.18175	-423.22730	1651.45404	-5.10233	-466.68815	1639.01558	-1.28609	-427.91532	1836.48052	-856.69989	-458.93145	1722.04403	-1074.43273	-506.49982	1796.39172	-1054.58007	-454.97557	1856.00562	-1051.52198	-313.08651	1946.26120	-1031.61261	-312.10091	1946.62980	-1069.52086	-347.64120	1182.75613	-551.75638	-361.12394	1190.61815	-758.12781	-326.94901	1216.06227	-569.90480	-337.67281	1221.68590	-730.71050	
207	2.06000000	-283.04694	742.91785	-461.96809	-240.87690	650.13043	-456.36843	-287.98211	307.72688	-447.46946	-372.12430	311.99070	-501.75738	-229.15996	169.23072	-423.17126	-155.43409	176.04611	-474.25035	-337.28716	735.66654	-842.49447	-343.28805	646.13516	-861.42769	-369.89293	309.71435	-805.00690	-445.37282	314.76719	-733.62876	-318.93265	170.67843	-823.86503	-241.71634	172.18591	-776.69219	-254.97032	542.36489	-422.52892	-306.92142	668.50889	-424.27772	-337.54433	557.43236	-410.46676	-428.94247	655.13496	-835.64576	-425.06850	532.94079	-830.58282	-262.57875	1070.54640	-470.37988	-241.12031	963.05483	-469.53144	-287.94368	928.61433	-437.91229	-371.74369	1043.26447	-468.03771	-340.55962	932.94603	-456.98805	-275.19211	1030.20737	-853.86888	-257.72791	890.99582	-847.20059	-383.69009	1016.40530	-867.69403	-372.01708	879.50092	-859.07630	-274.06352	1277.64308	-536.48046	-453.33193	1286.41585	-595.25968	-283.04825	1278.98699	-780.71757	-460.70266	1290.55325	-706.18545	-361.87952	1836.47248	-622.47968	-324.83400	1801.29956	-482.02863	-359.61167	1816.94707	-755.23846	-246.68525	1739.20368	-596.87163	-249.38943	1739.95547	-665.54119	-380.20143	1733.74013	-356.10328	-530.98513	1579.82559	-281.29660	-540.52997	1666.71229	-253.36158	-484.22725	1631.53722	-91.01550	-429.91883	1613.94082	-17.22103	-473.66986	1602.31865	-12.94862	-430.41551	1811.49083	-855.06023	-469.10688	1691.77198	-1069.04605	-516.22255	1766.29158	-1049.15322	-464.51590	1825.98138	-1045.76893	-321.42621	1913.66794	-1023.18430	-317.98605	1912.91994	-1062.47028	-349.37603	1159.34144	-552.44379	-362.49420	1167.82894	-758.81375	-328.57324	1192.78415	-570.25688	-339.26039	1198.78419	-731.09914	
